<svg width="96" height="32" fill="none" xmlns="http://www.w3.org/2000/svg"><path d="m5.428 9.4 3.484-2.01-1.945-3.366h18.288l-9.141 15.838-1.945-3.372-3.483 2.015 5.428 9.4L32.222 0H0l5.428 9.4ZM44.736 21.488c-1.056 1.272-2.664 1.92-4.584 1.92-3.792 0-6.096-2.448-6.096-6 0-3.528 2.328-5.976 6.096-5.976 1.824 0 3.576.696 4.632 1.968l-1.896 1.992c-.768-.84-1.608-1.176-2.736-1.176-1.608 0-3 1.296-3 3.192 0 2.064 1.296 3.216 3 3.216 1.008 0 2.16-.384 2.784-1.176l1.8 2.04ZM59.357 11.72l-6.984 16.56H48.94l2.232-5.16-4.824-11.4h3.408l2.4 6.096.696 2.184.672-2.184 2.4-6.096h3.432ZM67.203 14.264c-1.728 0-2.976 1.32-2.976 3.12 0 1.776 1.248 3.096 2.976 3.096 1.68 0 2.832-1.248 2.832-3.096 0-1.872-1.152-3.12-2.832-3.12ZM61.227 23V5.408h3.048v6.264l-.048.816c.504-.672 2.04-1.056 3.096-1.056 3.768 0 5.88 2.76 5.88 5.952 0 3.6-2.16 5.928-5.88 5.928-.912 0-2.376-.432-2.976-1.152l.024.648V23h-3.144ZM85.891 21.56c-.888 1.152-2.928 1.848-4.68 1.848-3.816 0-5.952-2.616-5.952-6 0-3.456 2.112-5.976 5.832-5.976 3.696 0 5.808 2.52 5.808 5.976 0 .384 0 .624-.024.96H78.38c.168 1.416 1.224 2.304 2.832 2.304 1.152 0 2.232-.384 2.904-1.128l1.776 2.016Zm-7.464-5.256h5.28c-.144-1.272-1.2-2.136-2.616-2.136-1.416 0-2.544.864-2.664 2.136ZM95.305 14.552c-.624-.216-1.176-.288-1.824-.288-.432 0-.792.024-1.128.168V23h-3.096V12.224c.936-.48 2.544-.816 4.104-.816.672 0 1.872.072 2.592.336l-.648 2.808Z" fill="#000"/></svg>